REM DIRINDEX 1\2\4,1\2\5,1\3\6,1\3\7,1\3\8
REM DIRNAME folder01,folder02,folder03,folder04,folder05,folder06,folder07,folder08
TITLE ""
FILE "LV4_067_WORDS.mp3" MP3
  TRACK 01 AUDIO
    TITLE "0:"
    INDEX 01 00:00:00
  TRACK 02 AUDIO
    TITLE "6:cjc094_2364"
    INDEX 01 00:00:01
  TRACK 03 AUDIO
    TITLE "0:"
    INDEX 01 00:03:35
  TRACK 04 AUDIO
    TITLE "7:cjc094_2365"
    INDEX 01 00:04:21
  TRACK 05 AUDIO
    TITLE "0:"
    INDEX 01 00:05:32
  TRACK 06 AUDIO
    TITLE "8:cjc094_2366"
    INDEX 01 00:05:40
  TRACK 07 AUDIO
    TITLE "0:"
    INDEX 01 00:07:52
  TRACK 08 AUDIO
    TITLE "7:cjc094_2367"
    INDEX 01 00:08:26
  TRACK 09 AUDIO
    TITLE "0:"
    INDEX 01 00:09:22
  TRACK 10 AUDIO
    TITLE "8:cjc094_2368"
    INDEX 01 00:09:36
  TRACK 11 AUDIO
    TITLE "0:"
    INDEX 01 00:10:43
  TRACK 12 AUDIO
    TITLE "7:cjc094_2369"
    INDEX 01 00:11:13
  TRACK 13 AUDIO
    TITLE "0:"
    INDEX 01 00:12:14
  TRACK 14 AUDIO
    TITLE "8:cjc094_2370"
    INDEX 01 00:12:30
  TRACK 15 AUDIO
    TITLE "0:"
    INDEX 01 00:13:41
  TRACK 16 AUDIO
    TITLE "7:cjc094_2371"
    INDEX 01 00:14:02
  TRACK 17 AUDIO
    TITLE "0:"
    INDEX 01 00:15:13
  TRACK 18 AUDIO
    TITLE "8:cjc094_2372"
    INDEX 01 00:15:25
  TRACK 19 AUDIO
    TITLE "0:"
    INDEX 01 00:17:29
  TRACK 20 AUDIO
    TITLE "7:cjc094_2373"
    INDEX 01 00:18:09
  TRACK 21 AUDIO
    TITLE "0:"
    INDEX 01 00:19:07
  TRACK 22 AUDIO
    TITLE "8:cjc094_2374"
    INDEX 01 00:19:20
  TRACK 23 AUDIO
    TITLE "0:"
    INDEX 01 00:20:16
  TRACK 24 AUDIO
    TITLE "7:cjc094_2375"
    INDEX 01 00:20:61
  TRACK 25 AUDIO
    TITLE "0:"
    INDEX 01 00:21:62
  TRACK 26 AUDIO
    TITLE "8:cjc094_2376"
    INDEX 01 00:21:74
  TRACK 27 AUDIO
    TITLE "0:"
    INDEX 01 00:23:03
  TRACK 28 AUDIO
    TITLE "7:cjc094_2377"
    INDEX 01 00:23:46
  TRACK 29 AUDIO
    TITLE "0:"
    INDEX 01 00:24:53
  TRACK 30 AUDIO
    TITLE "8:cjc094_2378"
    INDEX 01 00:24:65
  TRACK 31 AUDIO
    TITLE "0:"
    INDEX 01 00:25:56
  TRACK 32 AUDIO
    TITLE "7:cjc094_2379"
    INDEX 01 00:26:20
  TRACK 33 AUDIO
    TITLE "0:"
    INDEX 01 00:27:32
  TRACK 34 AUDIO
    TITLE "8:cjc094_2380"
    INDEX 01 00:27:43
  TRACK 35 AUDIO
    TITLE "0:"
    INDEX 01 00:30:65
  TRACK 36 AUDIO
    TITLE "7:cjc094_2381"
    INDEX 01 00:31:39
  TRACK 37 AUDIO
    TITLE "0:"
    INDEX 01 00:32:43
  TRACK 38 AUDIO
    TITLE "8:cjc094_2382"
    INDEX 01 00:32:60
  TRACK 39 AUDIO
    TITLE "0:"
    INDEX 01 00:34:04
  TRACK 40 AUDIO
    TITLE "7:cjc094_2383"
    INDEX 01 00:34:53
  TRACK 41 AUDIO
    TITLE "0:"
    INDEX 01 00:35:68
  TRACK 42 AUDIO
    TITLE "8:cjc094_2384"
    INDEX 01 00:36:07
  TRACK 43 AUDIO
    TITLE "0:"
    INDEX 01 00:39:43
  TRACK 44 AUDIO
    TITLE "7:cjc094_2385"
    INDEX 01 00:40:23
  TRACK 45 AUDIO
    TITLE "0:"
    INDEX 01 00:41:38
  TRACK 46 AUDIO
    TITLE "8:cjc094_2386"
    INDEX 01 00:41:51
  TRACK 47 AUDIO
    TITLE "0:"
    INDEX 01 00:44:40
  TRACK 48 AUDIO
    TITLE "7:cjc094_2387"
    INDEX 01 00:45:18
  TRACK 49 AUDIO
    TITLE "0:"
    INDEX 01 00:46:17
  TRACK 50 AUDIO
    TITLE "8:cjc094_2388"
    INDEX 01 00:46:31
  TRACK 51 AUDIO
    TITLE "0:"
    INDEX 01 00:49:10
  TRACK 52 AUDIO
    TITLE "7:cjc094_2389"
    INDEX 01 00:49:61
  TRACK 53 AUDIO
    TITLE "0:"
    INDEX 01 00:51:01
  TRACK 54 AUDIO
    TITLE "8:cjc094_2390"
    INDEX 01 00:51:18
  TRACK 55 AUDIO
    TITLE "0:"
    INDEX 01 00:53:11
  TRACK 56 AUDIO
    TITLE "7:cjc094_2391"
    INDEX 01 00:53:57
  TRACK 57 AUDIO
    TITLE "0:"
    INDEX 01 00:55:01
  TRACK 58 AUDIO
    TITLE "8:cjc094_2392"
    INDEX 01 00:55:14
  TRACK 59 AUDIO
    TITLE "0:"
    INDEX 01 00:57:31
  TRACK 60 AUDIO
    TITLE "7:cjc094_2393"
    INDEX 01 00:58:09
  TRACK 61 AUDIO
    TITLE "0:"
    INDEX 01 00:59:45
  TRACK 62 AUDIO
    TITLE "8:cjc094_2394"
    INDEX 01 00:59:57
  TRACK 63 AUDIO
    TITLE "0:"
    INDEX 01 01:02:06
  TRACK 64 AUDIO
    TITLE "7:cjc094_2395"
    INDEX 01 01:02:55
  TRACK 65 AUDIO
    TITLE "0:"
    INDEX 01 01:03:53
  TRACK 66 AUDIO
    TITLE "8:cjc094_2396"
    INDEX 01 01:03:71
  TRACK 67 AUDIO
    TITLE "0:"
    INDEX 01 01:06:22
  TRACK 68 AUDIO
    TITLE "7:cjc094_2397"
    INDEX 01 01:06:63
  TRACK 69 AUDIO
    TITLE "0:"
    INDEX 01 01:07:63
  TRACK 70 AUDIO
    TITLE "8:cjc094_2398"
    INDEX 01 01:08:09
  TRACK 71 AUDIO
    TITLE "0:"
    INDEX 01 01:09:14
  TRACK 72 AUDIO
    TITLE "7:cjc094_2399"
    INDEX 01 01:09:57
  TRACK 73 AUDIO
    TITLE "0:"
    INDEX 01 01:10:61
  TRACK 74 AUDIO
    TITLE "8:cjc094_2400"
    INDEX 01 01:11:02
  TRACK 75 AUDIO
    TITLE "0:"
    INDEX 01 01:12:40
  TRACK 76 AUDIO
    TITLE "7:cjc094_2401"
    INDEX 01 01:13:14
  TRACK 77 AUDIO
    TITLE "0:"
    INDEX 01 01:14:29
  TRACK 78 AUDIO
    TITLE "8:cjc094_2402"
    INDEX 01 01:14:43
  TRACK 79 AUDIO
    TITLE "0:"
    INDEX 01 01:16:61
  TRACK 80 AUDIO
    TITLE "7:cjc094_2403"
    INDEX 01 01:17:32
  TRACK 81 AUDIO
    TITLE "0:"
    INDEX 01 01:18:41
  TRACK 82 AUDIO
    TITLE "8:cjc094_2404"
    INDEX 01 01:18:62
  TRACK 83 AUDIO
    TITLE "0:"
    INDEX 01 01:21:74
